<?xml version="1.0" encoding="UTF-8" standalone="no"?>
<!-- Generator: Adobe Illustrator 19.2.1, SVG Export Plug-In . SVG Version: 6.00 Build 0)  -->

<svg
   xmlns:dc="http://purl.org/dc/elements/1.1/"
   xmlns:cc="http://creativecommons.org/ns#"
   xmlns:rdf="http://www.w3.org/1999/02/22-rdf-syntax-ns#"
   xmlns:svg="http://www.w3.org/2000/svg"
   xmlns="http://www.w3.org/2000/svg"
   xmlns:sodipodi="http://sodipodi.sourceforge.net/DTD/sodipodi-0.dtd"
   xmlns:inkscape="http://www.inkscape.org/namespaces/inkscape"
   version="1.1"
   id="Capa_1"
   x="0px"
   y="0px"
   viewBox="0 0 350 80"
   xml:space="preserve"
   inkscape:version="0.48.4 r9939"
   width="100%"
   height="100%"
   sodipodi:docname="logoModelsB.svg"><metadata
     id="metadata23"><rdf:RDF><cc:Work
         rdf:about=""><dc:format>image/svg+xml</dc:format><dc:type
           rdf:resource="http://purl.org/dc/dcmitype/StillImage" /></cc:Work></rdf:RDF></metadata><defs
     id="defs21" /><sodipodi:namedview
     pagecolor="#ffffff"
     bordercolor="#666666"
     borderopacity="1"
     objecttolerance="10"
     gridtolerance="10"
     guidetolerance="10"
     inkscape:pageopacity="0"
     inkscape:pageshadow="2"
     inkscape:window-width="1855"
     inkscape:window-height="1056"
     id="namedview19"
     showgrid="false"
     inkscape:zoom="1.8116667"
     inkscape:cx="382.28116"
     inkscape:cy="40"
     inkscape:window-x="65"
     inkscape:window-y="24"
     inkscape:window-maximized="1"
     inkscape:current-layer="Capa_1" /><style
     type="text/css"
     id="style3">
	.st0{fill:none;}
	.st1{fill:#1181C3;}
	.st2{fill:#FFFFFF;}
</style><rect
     class="st0"
     width="600"
     height="80"
     id="rect5"
     x="0"
     y="0"
     style="fill:none" /><path
     class="st1"
     d="m 5,2.7 v 55.6 c 0,6.3 5.1,11.5 11.4,11.6 H 72.2 V 13.8 C 72.2,7.6 67.2,2.7 61,2.7 H 60.9 5 z"
     id="path7"
     inkscape:connector-curvature="0"
     style="fill:#1181c3" /><path
     class="st2"
     d="M 49.9,12.3 H 55 v 47.1 h -5.2 v -3.1 c -3,2.7 -6.9,4.1 -10.9,4 -4.5,0.1 -8.9,-1.7 -12,-4.9 -3.2,-3.2 -4.9,-7.6 -4.8,-12.1 -0.1,-4.5 1.6,-8.9 4.8,-12.1 3.1,-3.2 7.5,-5 12,-4.9 4,-0.1 7.9,1.3 10.9,4 l 0.1,-18 0,0 0,0 z"
     id="path9"
     style="fill:#ffffff"
     inkscape:connector-curvature="0" /><path
     class="st1"
     d="m 38.9,31.5 c -3.1,0 -6.1,1.3 -8.3,3.6 -2.2,2.2 -3.4,5.2 -3.3,8.3 0,3.1 1.2,6.1 3.3,8.4 2.2,2.2 5.2,3.5 8.3,3.5 2.4,0 4.8,-0.8 6.7,-2.2 2,-1.4 3.4,-3.4 4.3,-5.6 v -8 c -0.8,-2.3 -2.3,-4.2 -4.3,-5.6 -1.9,-1.7 -4.3,-2.5 -6.7,-2.4 l 0,0 0,0 z"
     id="path11"
     inkscape:connector-curvature="0"
     style="fill:#1181c3" /><path
     id="path4669"
     class="st2"
     d="M 137.1,14.6 V 60.8 H 132 v -3 c -2.9,2.6 -6.8,4 -10.7,4 -4.4,0.1 -8.7,-1.7 -11.7,-4.9 -3.1,-3.1 -4.8,-7.4 -4.7,-11.8 -0.1,-4.4 1.6,-8.7 4.7,-11.8 3.1,-3.2 7.3,-4.9 11.7,-4.9 3.9,-0.1 7.8,1.3 10.7,3.9 V 14.6 h 5.1 l 0,0 z M 132,41.1 c -0.8,-2.2 -2.3,-4.2 -4.2,-5.5 -1.9,-1.4 -4.2,-2.2 -6.5,-2.1 -3.1,0 -6,1.2 -8.1,3.5 -2.1,2.2 -3.3,5.1 -3.3,8.1 0,3.1 1.1,6 3.3,8.2 2.1,2.2 5.1,3.4 8.1,3.4 2.4,0 4.7,-0.7 6.5,-2.1 1.9,-1.4 3.4,-3.3 4.2,-5.5 v -8 l 0,0 0,0 z"
     style="fill:#000000"
     inkscape:connector-curvature="0" /><path
     id="path4671"
     class="st2"
     d="m 144.1,29.1 h 5.1 v 31.7 h -5.1 V 29.1 z m -0.2,-4.4 c -0.7,-0.8 -1.1,-1.8 -1.1,-2.8 0,-1 0.4,-2 1.1,-2.7 0.7,-0.8 1.7,-1.3 2.8,-1.3 1,0 2,0.4 2.7,1.2 0.8,0.7 1.3,1.7 1.2,2.8 0,1.1 -0.5,2.1 -1.2,2.8 -0.7,0.7 -1.7,1.1 -2.7,1.1 -1,0.1 -2.1,-0.3 -2.8,-1.1 l 0,0 z"
     style="fill:#000000"
     inkscape:connector-curvature="0" /><path
     id="path4673"
     class="st2"
     d="m 156.3,29.1 h 5.1 v 4.3 c 2.8,-2.9 6.7,-4.6 10.8,-4.5 4.1,-0.1 8.1,1.6 10.7,4.7 2.8,3.3 4.2,7.4 4.1,11.7 v 15.4 h -5.1 V 45.4 c 0.1,-2.9 -0.8,-5.8 -2.6,-8.1 -1.7,-2.2 -4.3,-3.4 -7.1,-3.3 -2.7,-0.1 -5.3,1 -7.2,2.9 -1.9,1.9 -3.2,4.3 -3.5,7 v 16.9 h -5.1 l -0.1,-31.7 0,0 z"
     style="fill:#000000"
     inkscape:connector-curvature="0" /><path
     id="path4675"
     class="st2"
     d="m 192.5,14.6 h 5.1 v 17.7 c 6.5,-5.6 16.3,-5.2 22.3,0.9 3.2,3.1 4.9,7.4 4.9,11.8 0.1,4.5 -1.7,8.8 -4.9,11.9 -6.1,6.1 -15.8,6.5 -22.3,0.9 v 3 h -5.1 V 14.6 l 0,0 0,0 z m 5.1,34.4 c 0.8,2.2 2.2,4.1 4.1,5.5 1.9,1.4 4.2,2.2 6.6,2.1 3,0.1 5.9,-1.2 8,-3.4 2.2,-2.2 3.4,-5.1 3.4,-8.2 0,-3.1 -1.2,-6 -3.4,-8.1 -2,-2.3 -5,-3.5 -8,-3.5 -2.4,0 -4.7,0.7 -6.6,2.1 -1.9,1.4 -3.3,3.3 -4.1,5.5 v 8 l 0,0 0,0 z"
     style="fill:#000000"
     inkscape:connector-curvature="0" /><path
     id="path4677"
     class="st2"
     d="m 232.9,56.9 c -3.1,-3.1 -4.8,-7.4 -4.7,-11.8 -0.1,-4.4 1.6,-8.7 4.7,-11.8 3.1,-3.2 7.3,-4.9 11.7,-4.9 4.4,-0.1 8.6,1.6 11.7,4.8 3.2,3.1 4.9,7.4 4.9,11.8 0.1,4.5 -1.7,8.8 -4.9,11.9 -3,3.2 -7.2,4.9 -11.6,4.8 -4.5,0.2 -8.7,-1.6 -11.8,-4.8 z m 3.6,-20 c -2.1,2.2 -3.3,5.1 -3.3,8.1 0,3.1 1.1,6 3.3,8.2 2.1,2.2 5.1,3.4 8.1,3.4 3,0.1 5.9,-1.2 8,-3.4 2.2,-2.2 3.4,-5.1 3.4,-8.2 0,-3.1 -1.2,-6 -3.4,-8.1 -2,-2.3 -5,-3.5 -8,-3.5 -3.1,0 -6,1.3 -8.1,3.5 z"
     style="fill:#000000"
     inkscape:connector-curvature="0" /><path
     id="path4679"
     class="st2"
     d="m 272.8,36.9 c -2.1,2.2 -3.3,5.1 -3.3,8.1 0,3.1 1.1,6 3.3,8.2 2.1,2.2 5.1,3.4 8.1,3.4 2.7,0 5.2,-0.9 7.2,-2.7 2,-1.7 3.4,-4 4,-6.7 v -4.5 c -0.5,-2.6 -1.9,-5 -4,-6.7 -2,-1.8 -4.6,-2.8 -7.2,-2.7 -3.1,0.1 -6,1.4 -8.1,3.6 z m 24.4,-7.8 v 31.7 c 0.1,9 -7.1,16.5 -16.2,16.6 -0.1,0 -0.2,0 -0.3,0 -5.8,0 -11.2,-2.5 -15,-6.9 l 3.6,-3.6 c 1.3,1.9 3.2,3.3 5.3,4.1 1.9,0.8 4,1.3 6.1,1.3 3.1,0.1 6,-1.2 8.2,-3.4 2.2,-2.1 3.4,-5.1 3.3,-8.1 v -3.5 c -6.5,6.1 -16.6,5.9 -22.9,-0.4 -3.1,-3.1 -4.8,-7.4 -4.7,-11.8 -0.1,-4.4 1.6,-8.7 4.7,-11.8 6.3,-6.3 16.4,-6.5 22.9,-0.5 V 29 l 5,0.1 0,0 z"
     style="fill:#000000"
     inkscape:connector-curvature="0" /></svg>